<?xml version="1.0" standalone="no"?>
<!DOCTYPE svg PUBLIC "-//W3C//DTD SVG 20010904//EN"
 "http://www.w3.org/TR/2001/REC-SVG-20010904/DTD/svg10.dtd">
<svg version="1.0" xmlns="http://www.w3.org/2000/svg"
 width="352.000000pt" height="612.000000pt" viewBox="0 0 352.000000 612.000000"
 preserveAspectRatio="xMidYMid meet">

<g transform="translate(0.000000,612.000000) scale(0.100000,-0.100000)"
fill="#000000" stroke="none">
<path d="M1008 5894 c21 -9 42 -60 42 -101 0 -21 -8 -73 -17 -116 -14 -66 -15
-87 -4 -140 8 -44 9 -72 1 -96 -7 -27 -6 -40 5 -57 18 -29 85 -90 155 -144 88
-69 131 -112 151 -155 14 -29 19 -34 19 -18 0 41 -39 146 -69 183 -17 22 -26
40 -20 42 6 2 -12 35 -40 72 l-52 68 36 -4 c19 -2 35 0 35 4 0 5 -20 60 -45
122 -48 123 -58 169 -27 128 9 -12 30 -54 46 -92 l30 -70 12 45 c22 87 34 77
34 -25 0 -52 5 -113 12 -135 l11 -40 12 60 c7 33 17 71 23 85 l11 25 0 -30 c0
-16 -4 -48 -9 -70 -14 -57 -14 -159 -1 -184 15 -28 31 -27 31 3 0 13 12 55 26
92 21 54 27 86 27 150 0 115 -20 152 -144 264 -82 73 -110 92 -162 108 -57 19
-159 39 -129 26z"/>
<path d="M913 5850 c-30 -18 -63 -65 -63 -90 0 -6 5 -8 12 -4 7 5 41 9 76 10
34 1 69 8 77 14 35 29 4 90 -46 90 -13 0 -38 -9 -56 -20z"/>
<path d="M1910 5848 c-173 -61 -304 -189 -399 -389 -85 -179 -113 -341 -91
-529 8 -61 14 -110 16 -110 6 0 74 31 74 34 0 2 -7 21 -16 41 -22 53 -29 199
-15 290 42 256 204 510 384 600 61 31 79 35 146 35 60 0 87 -5 130 -25 30 -14
55 -24 56 -23 10 12 -21 51 -55 68 -63 32 -152 35 -230 8z"/>
<path d="M1860 5707 c0 -10 -19 -29 -44 -44 -52 -32 -63 -52 -76 -141 -10 -72
-15 -79 -131 -173 -24 -20 -55 -56 -67 -80 l-24 -44 34 37 c101 111 304 209
397 192 22 -5 54 -24 84 -53 46 -43 52 -46 123 -52 41 -4 82 -13 91 -21 15
-12 16 -10 9 17 -13 53 -52 101 -103 126 -42 21 -62 24 -158 24 -93 0 -118 -3
-159 -23 -27 -12 -52 -20 -54 -17 -3 3 21 34 55 68 93 95 100 118 53 169 -23
26 -29 29 -30 15z"/>
<path d="M1713 5274 c-61 -22 -137 -95 -169 -161 -36 -73 -38 -134 -4 -187
l24 -40 11 65 c6 35 15 71 20 81 11 18 79 74 97 80 21 7 -3 28 -33 28 -39 0
-37 12 9 48 90 71 152 81 201 32 38 -39 48 -87 27 -128 -21 -41 -21 -92 0 -92
8 0 29 13 45 29 25 25 29 37 29 81 0 63 -30 122 -77 151 -43 27 -126 33 -180
13z"/>
<path d="M915 5100 c-130 -27 -205 -80 -261 -182 l-14 -27 55 0 c75 1 100 -17
140 -105 56 -122 100 -146 280 -146 100 -1 130 -6 198 -35 27 -12 22 42 -10
88 -42 61 -101 90 -196 95 -71 4 -78 6 -62 18 11 8 44 14 77 14 32 0 58 4 58
8 0 20 -58 32 -153 32 -108 0 -155 12 -101 26 16 4 66 8 111 8 46 1 83 4 83 7
0 14 -81 79 -105 85 -27 7 -34 24 -10 24 36 0 94 -34 149 -88 l59 -57 -7 35
-6 34 29 -28 c18 -17 45 -66 66 -120 45 -111 57 -128 66 -95 4 13 7 52 8 86 4
222 -208 373 -454 323z"/>
<path d="M655 4855 c-14 -13 -25 -32 -25 -42 1 -30 40 -107 49 -97 16 17 61
109 61 124 0 43 -49 52 -85 15z"/>
<path d="M1525 4790 c-11 -5 -32 -9 -47 -9 -37 -1 -62 -39 -49 -73 11 -29 29
-38 74 -38 24 0 41 -11 79 -50 26 -27 50 -50 52 -50 2 0 6 10 10 23 3 12 21
48 39 79 l35 57 -23 21 c-22 21 -103 51 -134 49 -9 0 -25 -4 -36 -9z"/>
<path d="M1720 4676 c-16 -28 -39 -63 -51 -77 -26 -32 -35 -105 -17 -138 18
-34 31 -31 39 8 4 18 14 41 23 49 24 24 47 6 72 -56 l21 -52 20 23 c47 51 53
90 28 175 -17 56 -54 107 -85 115 -15 4 -26 -6 -50 -47z"/>
<path d="M1423 4650 c-20 -8 -23 -16 -23 -70 0 -82 21 -130 55 -130 14 0 40 7
57 16 19 10 48 14 74 12 24 -2 44 -2 44 0 0 7 -44 90 -61 113 -10 15 -39 36
-64 48 -50 23 -51 23 -82 11z"/>
<path d="M1710 4464 c-7 -20 -10 -56 -7 -79 l4 -43 -32 5 c-18 3 -44 -1 -59
-9 l-28 -14 38 -33 c29 -26 44 -32 70 -29 27 3 34 0 38 -18 3 -12 42 -55 86
-95 85 -77 124 -138 136 -218 l7 -43 13 32 c8 18 14 44 14 59 0 33 -66 125
-149 206 -63 61 -75 89 -42 100 30 9 48 37 56 83 6 38 5 41 -12 36 -10 -4 -30
-18 -46 -32 l-27 -26 6 31 c6 32 -28 123 -46 123 -5 0 -14 -16 -20 -36z"/>
<path d="M1494 4435 c-10 -8 -27 -15 -36 -15 -9 0 -23 -9 -32 -21 -13 -19 -12
-26 16 -73 39 -66 65 -94 110 -117 49 -25 95 -24 138 3 l35 21 -55 12 c-79 16
-120 44 -120 83 0 9 97 52 119 52 19 0 -15 37 -51 56 -35 18 -99 18 -124 -1z"/>
<path d="M2140 4405 c-13 -14 -33 -25 -45 -25 -28 0 -71 -34 -90 -70 -15 -30
-21 -191 -9 -237 5 -19 11 -13 40 41 18 35 38 86 44 112 12 52 48 107 83 125
19 11 19 9 -5 -19 -29 -35 -44 -70 -33 -80 3 -3 16 6 28 20 31 37 58 48 114
47 47 -1 47 -1 12 -8 -20 -4 -56 -22 -80 -39 l-43 -32 36 0 c20 0 40 -4 43
-10 4 -6 -12 -10 -41 -10 -38 0 -54 -5 -76 -27 -15 -15 -28 -30 -28 -35 0 -4
24 -9 53 -9 l52 -1 -55 -8 c-41 -6 -60 -15 -77 -35 -30 -35 -29 -45 5 -34 15
5 54 11 87 15 74 7 106 37 144 134 16 40 35 69 48 75 21 11 22 12 5 36 -63 91
-163 126 -212 74z"/>
<path d="M1627 4136 c-86 -23 -146 -106 -153 -210 -1 -28 -6 -75 -10 -104 l-7
-52 36 15 c20 8 56 15 79 15 26 0 52 8 67 19 18 14 35 18 58 14 56 -9 83 25
118 150 13 49 21 61 48 72 l32 14 -28 1 c-41 0 -64 -15 -98 -68 l-30 -47 6 38
6 38 -25 -16 c-31 -21 -49 -49 -65 -103 -15 -55 -25 -49 -12 7 5 25 5 41 0 41
-11 0 -69 -30 -109 -56 -14 -9 -7 1 16 22 22 22 56 47 75 58 31 17 32 19 14
27 -11 4 -39 8 -63 8 -28 1 -41 5 -37 12 4 6 35 9 73 8 37 -1 81 4 97 11 28
11 28 13 10 20 -11 5 -33 12 -50 16 -26 7 -27 8 -8 11 12 3 37 0 55 -4 18 -5
51 -6 73 -3 l39 5 -26 17 c-24 16 -98 38 -123 37 -5 0 -32 -6 -58 -13z"/>
<path d="M2620 4093 c-22 -8 -60 -45 -60 -57 0 -6 -15 -11 -33 -12 -44 -1 -89
-24 -105 -54 -21 -39 -10 -136 23 -200 l28 -55 18 59 c25 84 36 88 44 17 4
-34 10 -61 14 -61 4 0 12 15 19 33 11 30 81 112 88 104 2 -2 -8 -30 -21 -63
-14 -32 -25 -72 -25 -88 l0 -30 30 41 c17 22 41 48 55 57 22 14 20 9 -15 -45
-22 -34 -40 -71 -40 -81 0 -18 1 -18 28 1 34 25 100 40 175 41 71 0 122 20
133 52 11 35 5 79 -16 116 -11 18 -20 50 -20 70 0 52 -22 79 -79 96 -26 7 -71
26 -99 40 -48 25 -106 32 -142 19z"/>
<path d="M2165 4043 c-54 -7 -81 -23 -107 -64 -15 -23 -30 -59 -33 -82 -8 -44
0 -55 98 -130 21 -15 54 -57 74 -92 41 -72 52 -70 53 10 l1 50 22 -37 c12 -21
26 -38 31 -38 4 0 6 26 2 58 l-6 57 20 -40 c11 -22 29 -51 40 -65 l20 -25 -7
75 c-8 87 -8 94 2 177 9 71 -4 102 -53 126 -30 16 -111 26 -157 20z"/>
<path d="M1900 3814 c-44 -15 -61 -31 -77 -73 -9 -25 -31 -62 -49 -82 -40 -46
-48 -82 -35 -156 12 -64 43 -109 110 -160 76 -59 116 -46 188 60 36 52 84 86
123 88 43 1 -37 27 -90 29 l-45 2 30 13 c17 8 46 14 64 15 l35 0 -35 36 c-18
20 -43 40 -54 44 -17 8 -18 9 -2 9 26 1 88 -27 116 -52 l23 -22 -7 25 c-22 77
-103 167 -179 200 -48 21 -95 31 -116 24z"/>
<path d="M2460 3650 c6 -12 10 -59 8 -111 -3 -89 -2 -92 25 -115 35 -30 41
-30 66 2 25 32 35 82 26 131 -9 48 -72 113 -109 113 -24 0 -25 -2 -16 -20z"/>
<path d="M2736 3635 c-59 -21 -104 -71 -112 -125 -7 -45 -7 -45 14 -27 24 22
110 37 98 18 -4 -6 -31 -23 -59 -38 l-52 -27 42 -7 c38 -7 103 -34 103 -43 0
-2 -29 -1 -64 1 -72 6 -94 -8 -38 -25 20 -6 53 -25 72 -42 l35 -30 -40 16
c-52 22 -89 28 -121 20 l-26 -7 39 -37 c21 -21 49 -54 63 -75 37 -54 82 -73
140 -58 25 7 62 23 83 37 33 22 45 24 91 19 62 -8 80 4 96 64 8 30 7 48 -5 82
-9 24 -13 56 -10 71 8 35 -25 111 -59 133 -14 9 -44 23 -68 30 -24 7 -65 24
-92 39 -55 29 -74 31 -130 11z"/>
<path d="M1509 3629 c-67 -10 -80 -20 -159 -114 -68 -82 -101 -104 -135 -91
-33 12 -6 -61 37 -100 48 -44 164 -106 213 -114 28 -5 67 -16 87 -24 48 -21
74 -20 124 3 44 20 134 100 134 119 0 15 -74 92 -88 92 -7 0 -32 -20 -58 -45
-61 -60 -76 -57 -24 5 36 43 39 50 22 50 -40 0 -71 -20 -112 -72 -23 -29 -49
-57 -57 -62 -19 -10 -13 0 34 63 19 24 32 46 29 48 -2 2 -26 -7 -52 -21 -49
-26 -86 -31 -143 -20 -45 9 -30 20 30 23 73 3 81 12 26 28 -60 17 -63 38 -4
28 23 -3 56 -9 73 -12 17 -2 49 0 73 7 l42 11 -25 20 c-14 11 -42 26 -63 34
-35 13 -36 14 -10 14 15 1 54 -10 87 -24 41 -17 68 -23 90 -19 17 4 29 9 28
13 -2 3 -14 35 -27 69 -33 87 -72 107 -172 91z"/>
<path d="M2339 3634 c-24 -7 -40 -49 -30 -77 14 -36 36 -48 83 -45 43 3 43 3
46 44 2 29 -2 45 -15 56 -20 18 -60 28 -84 22z"/>
<path d="M1196 3592 c-3 -6 -9 -31 -12 -56 -10 -73 22 -94 89 -60 l31 17 -33
28 c-19 15 -42 40 -51 54 -10 15 -20 22 -24 17z"/>
<path d="M2256 3568 c-20 -48 -20 -61 3 -106 23 -45 64 -77 120 -92 40 -11 81
-1 81 19 0 21 -70 85 -110 100 -40 15 -47 21 -62 66 l-17 50 -15 -37z"/>
<path d="M2107 3420 c-62 -39 -94 -104 -109 -216 l-11 -85 29 -42 c34 -49 98
-76 181 -77 43 0 57 -5 93 -35 32 -27 51 -35 80 -35 21 0 49 -4 62 -9 13 -5
36 -7 50 -4 34 7 104 66 125 106 25 48 20 127 -11 190 -30 62 -48 80 -98 102
l-37 15 13 -33 c7 -17 16 -45 20 -62 6 -28 5 -28 -16 9 -13 21 -33 46 -45 54
l-23 14 -1 -73 c-1 -65 -2 -70 -10 -39 -18 69 -32 110 -38 110 -3 0 -17 -27
-29 -60 -13 -33 -27 -60 -31 -60 -8 0 0 61 14 113 4 15 4 27 0 27 -13 0 -51
-23 -77 -48 -44 -40 -33 -5 11 40 l40 39 -27 10 c-15 6 -43 8 -62 5 -33 -5
-34 -4 -15 10 11 8 30 17 43 21 27 6 28 19 3 33 -34 18 -75 11 -124 -20z"/>
<path d="M1641 3116 c-14 -15 -39 -26 -67 -31 -59 -8 -98 -44 -123 -111 -23
-61 -28 -172 -9 -207 18 -35 77 -109 97 -124 18 -12 19 -10 14 30 l-5 42 22
-32 c12 -18 23 -33 24 -33 1 0 0 16 -2 35 -2 19 -1 47 3 62 7 27 8 26 33 -27
l26 -55 6 68 c9 90 25 106 34 33 4 -31 11 -56 15 -56 4 0 14 19 21 43 l14 42
9 -47 c11 -59 27 -62 27 -5 1 58 28 114 90 182 43 48 51 61 45 84 -8 33 -28
48 -80 62 -22 6 -59 24 -82 40 -50 35 -82 37 -112 5z"/>
<path d="M2845 3086 c-26 -10 -61 -37 -97 -78 -32 -34 -58 -66 -58 -70 0 -15
28 -8 93 22 36 17 82 33 103 36 l39 4 -40 -15 c-40 -16 -73 -41 -64 -49 2 -2
36 4 74 14 39 11 86 19 105 18 34 0 34 0 -8 -9 -23 -4 -51 -14 -62 -22 -19
-13 -16 -15 39 -21 43 -5 71 -15 101 -37 23 -17 40 -32 37 -35 -2 -2 -28 7
-58 20 -65 29 -159 44 -159 26 0 -14 67 -80 81 -80 5 0 9 -4 9 -10 0 -25 -35
-6 -83 45 -28 30 -55 55 -59 55 -13 0 -9 -34 8 -58 20 -30 15 -28 -46 13 -29
19 -62 36 -74 36 -35 2 -59 2 -91 0 -29 -2 -28 -3 20 -26 28 -13 78 -49 112
-78 126 -111 149 -117 291 -82 68 17 76 17 107 2 25 -12 35 -25 42 -54 l10
-38 12 73 c23 130 -10 236 -100 316 -83 75 -205 110 -284 82z"/>
<path d="M1959 2950 c-85 -45 -166 -177 -154 -250 l7 -40 24 29 c13 16 33 31
44 34 20 5 20 5 2 -26 -11 -18 -22 -44 -26 -59 l-6 -27 60 25 c33 13 63 24 67
24 4 0 -17 -25 -47 -56 -32 -33 -47 -54 -35 -50 11 4 34 10 50 13 29 6 29 5
-12 -26 -24 -17 -43 -33 -43 -36 0 -2 17 4 38 13 29 13 70 17 194 18 200 1
196 -1 233 134 25 90 26 106 16 142 -7 22 -27 56 -46 76 -32 36 -36 37 -102
37 -53 0 -76 5 -104 23 -45 27 -110 28 -160 2z"/>
<path d="M2483 2808 c20 -47 22 -72 22 -226 l0 -172 23 0 c28 0 28 1 46 124
18 122 54 200 110 236 21 13 33 26 28 28 -23 7 -97 -21 -124 -48 -15 -16 -28
-23 -28 -17 0 58 -43 127 -79 127 -18 0 -18 -2 2 -52z"/>
<path d="M1238 2821 c-9 -3 -26 -18 -38 -33 -14 -19 -31 -28 -49 -28 -35 0
-51 -17 -51 -53 0 -43 -16 -65 -69 -92 -53 -27 -61 -38 -61 -95 0 -45 46 -113
98 -143 31 -18 36 -18 95 -4 103 26 177 31 224 14 40 -13 42 -13 33 3 -5 9
-25 31 -45 49 l-36 31 36 0 c42 0 44 11 8 40 l-28 22 46 -3 c39 -3 45 -2 37
11 -6 9 -24 25 -41 38 -31 22 -31 22 -7 22 14 -1 42 -7 62 -14 40 -15 41 -9 4
33 l-21 24 33 -17 c17 -9 32 -13 32 -9 -2 33 -113 164 -160 187 -33 17 -81 25
-102 17z"/>
<path d="M3120 2670 c11 -20 7 -32 -22 -90 l-35 -68 46 19 c53 23 81 51 81 84
0 28 -27 61 -58 70 -22 6 -23 5 -12 -15z"/>
<path d="M1725 2643 c16 -39 23 -88 15 -102 -4 -9 -18 -25 -29 -35 -12 -11
-21 -31 -21 -46 0 -30 55 -110 75 -110 36 0 85 100 85 172 0 52 -26 95 -69
117 -50 26 -66 27 -56 4z"/>
<path d="M1647 2626 c-9 -7 -35 -16 -57 -20 -27 -4 -43 -13 -51 -29 -7 -12
-23 -35 -35 -50 -13 -16 -24 -42 -24 -58 0 -30 30 -69 53 -69 24 0 117 49 117
62 0 6 13 26 30 43 24 24 30 41 32 80 3 47 1 50 -22 52 -14 2 -33 -3 -43 -11z"/>
<path d="M1914 2461 c-51 -23 -64 -41 -31 -41 14 0 35 -9 48 -21 l24 -20 -23
6 c-13 4 -40 4 -62 0 l-39 -7 35 -30 c18 -16 34 -37 34 -47 -1 -15 -1 -15 -10
0 -11 18 -67 45 -77 36 -3 -4 0 -26 6 -51 6 -25 11 -52 11 -60 0 -22 -25 -10
-40 20 -23 42 -29 36 -51 -46 -9 -37 -13 -41 -19 -25 -4 11 -6 36 -3 55 l4 35
-40 -45 c-46 -51 -64 -48 -32 6 l22 36 -28 -6 c-42 -11 -94 -57 -121 -107 -21
-38 -23 -54 -20 -124 6 -99 39 -171 99 -215 58 -42 97 -47 173 -21 38 13 88
21 128 21 54 0 76 5 124 31 112 58 135 97 132 215 -2 64 0 73 27 109 92 119
-33 316 -199 315 -17 0 -50 -9 -72 -19z"/>
<path d="M1467 2390 c8 -30 77 -87 121 -101 32 -9 49 -9 83 2 38 12 44 18 47
45 2 25 -3 37 -24 53 -33 26 -58 27 -100 1 -35 -22 -74 -20 -95 6 -17 21 -38
17 -32 -6z"/>
<path d="M2383 2359 c-51 -25 -98 -82 -123 -147 -19 -49 -38 -192 -26 -192 8
0 43 77 70 151 9 26 25 54 36 64 18 17 18 15 -1 -35 -31 -81 -16 -83 24 -4 20
40 48 81 63 93 38 30 48 26 17 -6 -24 -27 -63 -94 -63 -110 0 -4 19 11 43 34
23 22 52 46 64 52 27 14 83 14 103 1 12 -8 11 -10 -8 -10 -39 0 -94 -29 -143
-75 l-48 -45 42 -1 42 -1 -50 -13 c-85 -20 -137 -58 -188 -135 -20 -30 -22
-109 -4 -135 13 -16 15 -15 20 22 15 89 89 154 205 177 40 8 83 23 96 33 147
116 177 129 226 103 18 -10 19 -8 13 22 -3 18 -15 46 -26 62 -21 29 -107 76
-141 76 -11 0 -28 8 -39 17 -31 29 -151 30 -204 2z"/>
<path d="M1135 2345 c-54 -21 -94 -62 -101 -104 -4 -20 -17 -50 -30 -68 -30
-40 -30 -59 2 -163 49 -156 55 -170 90 -196 28 -22 40 -25 71 -20 21 4 76 10
123 14 54 5 95 14 112 26 36 23 55 82 63 186 7 113 28 171 72 211 l36 31 -34
-7 c-39 -9 -86 -31 -111 -53 -32 -28 -19 6 17 44 19 20 35 37 35 38 0 1 -28
-1 -62 -2 -55 -4 -61 -2 -49 11 7 9 25 17 39 19 24 3 21 5 -23 21 -69 25 -198
31 -250 12z"/>
<path d="M2733 2130 c13 -47 20 -49 43 -15 20 30 6 55 -31 55 -21 0 -22 -2
-12 -40z"/>
<path d="M2767 2070 c-133 -23 -333 -110 -400 -173 l-32 -32 28 -3 c20 -2 52
12 115 52 49 31 115 66 148 77 141 50 317 10 374 -84 27 -43 25 -79 -5 -115
-30 -36 -31 -42 -7 -42 25 0 47 26 62 73 10 33 9 45 -4 81 -9 23 -30 55 -46
71 -38 37 -38 46 3 38 95 -18 190 -93 236 -185 42 -83 43 -163 4 -242 -46 -95
1 -90 50 5 25 47 28 62 24 119 -3 36 -14 91 -27 122 -27 72 -106 160 -173 194
-92 47 -229 64 -350 44z"/>
<path d="M2390 1831 c0 -23 47 -41 107 -41 34 0 65 -4 68 -10 4 -6 -14 -10
-47 -10 -52 0 -98 -16 -105 -35 -2 -6 27 -10 77 -10 54 0 83 -5 92 -14 11 -11
7 -12 -25 -7 -53 10 -97 -1 -97 -24 0 -30 26 -43 74 -36 48 8 96 -1 96 -16 0
-6 -17 -8 -43 -4 -43 7 -77 1 -77 -13 0 -4 34 -35 76 -69 42 -34 70 -62 62
-62 -8 0 -41 23 -72 50 -31 28 -61 50 -67 50 -14 0 -11 -48 7 -81 8 -17 14
-33 11 -35 -10 -10 -39 50 -46 95 -4 26 -18 62 -31 79 -23 31 -25 32 -38 15
-9 -12 -12 -34 -8 -63 3 -30 2 -38 -4 -25 -12 29 -12 70 1 99 10 21 8 31 -11
63 -13 21 -26 51 -29 68 -13 60 -79 35 -113 -43 -40 -89 -6 -253 62 -304 14
-10 50 -21 80 -24 33 -4 77 -18 109 -36 45 -25 66 -30 116 -30 77 1 136 16
159 41 17 18 17 19 -1 25 -34 11 -55 62 -48 115 4 34 2 63 -9 95 -9 26 -16 60
-16 77 0 47 -28 96 -65 113 -37 18 -245 23 -245 7z"/>
<path d="M2001 1775 c-40 -13 -92 -27 -115 -31 -85 -14 -181 -83 -205 -147
-14 -36 -5 -169 15 -231 18 -52 77 -126 101 -126 12 0 14 8 9 34 -9 47 19 66
96 66 46 0 69 6 111 30 99 56 122 103 120 245 -1 57 3 100 11 117 12 23 12 27
-3 30 -23 6 -76 -9 -91 -27 -8 -9 -12 -48 -13 -102 0 -49 -2 -72 -4 -53 -5 53
-24 120 -34 120 -5 0 -17 -12 -26 -27 -14 -20 -17 -43 -15 -91 1 -36 0 -73 -3
-83 -10 -30 -27 -22 -21 9 3 15 2 45 -3 67 l-7 40 -35 -58 c-18 -31 -44 -76
-57 -100 -20 -37 -22 -38 -17 -12 8 39 41 104 68 132 11 13 17 26 14 30 -10
10 -50 -11 -92 -49 -31 -27 -36 -29 -26 -10 13 25 87 82 106 82 6 0 22 12 36
26 l24 27 -50 -7 c-35 -4 -46 -3 -38 5 6 6 30 13 54 16 28 3 58 17 84 36 22
18 62 39 90 49 81 28 5 22 -84 -7z"/>
<path d="M2800 1524 c-38 -36 -42 -44 -31 -58 19 -23 58 -20 71 4 6 12 10 38
8 58 l-3 37 -45 -41z"/>
<path d="M2176 1480 c-56 -174 -225 -372 -456 -535 -78 -55 -194 -119 -268
-148 l-42 -17 17 -28 c9 -15 18 -29 19 -31 5 -7 135 59 206 105 40 25 130 88
199 140 154 113 213 149 283 169 77 23 119 3 132 -63 5 -25 1 -35 -20 -53 -47
-41 -23 -74 33 -45 57 30 78 109 44 167 -28 47 -74 62 -165 56 l-78 -5 44 49
c80 89 113 189 84 259 l-14 34 -18 -54z"/>
<path d="M1287 1416 c-26 -7 -59 -24 -72 -36 l-25 -24 28 -12 c32 -13 72 -70
72 -102 0 -12 -9 -44 -20 -72 -25 -64 -25 -116 -1 -157 16 -26 171 -153 186
-153 3 0 5 15 5 34 0 48 -26 116 -57 148 -29 30 -21 37 15 12 30 -21 28 -11
-18 102 -22 54 -38 100 -35 102 10 10 39 -25 61 -72 24 -52 28 -50 39 18 5 30
9 36 18 27 8 -8 11 -45 9 -112 -2 -101 11 -134 22 -55 6 41 29 87 39 76 5 -7
-9 -171 -18 -200 -6 -19 0 -16 24 15 88 112 93 124 88 201 -3 54 -10 83 -30
117 -67 114 -211 176 -330 143z"/>
<path d="M1166 1318 c-9 -5 -26 -30 -37 -55 -23 -55 -23 -56 0 -43 11 5 31 10
45 10 37 0 70 35 56 60 -15 28 -42 40 -64 28z"/>
<path d="M1842 1308 c-18 -18 -15 -53 6 -71 20 -19 69 -22 92 -7 13 8 13 10
-2 10 -10 0 -25 15 -34 33 -24 46 -41 56 -62 35z"/>
<path d="M1080 816 c-25 -7 -70 -24 -100 -36 -30 -12 -66 -26 -80 -30 -21 -7
-17 -8 21 -9 25 -1 79 -10 120 -20 41 -11 112 -25 159 -31 102 -14 137 -29 68
-30 -26 0 -49 -4 -53 -9 -7 -13 42 -49 132 -96 40 -22 70 -41 68 -43 -10 -11
-104 22 -143 50 -24 16 -46 28 -49 25 -3 -4 7 -27 21 -52 19 -31 23 -45 13
-45 -14 0 -52 38 -111 113 -47 60 -66 61 -31 2 14 -25 24 -53 22 -63 -3 -13
-6 -11 -15 10 -19 47 -91 117 -133 129 -30 9 -56 9 -115 -1 l-77 -13 50 -22
c58 -26 90 -64 131 -155 34 -77 48 -90 101 -97 32 -4 42 -2 52 14 11 19 13 19
59 -12 68 -45 108 -50 195 -20 122 42 174 31 194 -41 7 -27 9 -25 20 29 27
125 -33 255 -131 287 -29 9 -38 17 -38 34 0 38 -42 89 -94 115 -60 30 -185 38
-256 17z"/>
<path d="M400 720 c-10 -19 -6 -23 57 -53 61 -29 77 -32 158 -32 86 0 93 1
135 33 l44 32 -110 0 c-96 0 -206 15 -256 35 -11 4 -20 0 -28 -15z"/>
<path d="M1470 352 c-12 -9 -26 -37 -31 -62 -6 -25 -17 -53 -26 -62 -15 -17
-14 -18 8 -18 83 1 139 37 139 90 0 47 -56 80 -90 52z"/>
</g>
</svg>
