<?xml version="1.0" standalone="no"?>
<!DOCTYPE svg PUBLIC "-//W3C//DTD SVG 20010904//EN"
 "http://www.w3.org/TR/2001/REC-SVG-20010904/DTD/svg10.dtd">
<svg version="1.0" xmlns="http://www.w3.org/2000/svg"
 width="558.000000pt" height="618.000000pt" viewBox="0 0 558.000000 618.000000"
 preserveAspectRatio="xMidYMid meet">
<metadata>
Created by potrace 1.10, written by Peter Selinger 2001-2011
</metadata>
<g transform="translate(0.000000,618.000000) scale(0.100000,-0.100000)"
fill="#000000" stroke="none">
<path d="M2475 6040 c-44 -4 -120 -10 -170 -14 -117 -9 -294 -33 -372 -52 -34
-8 -71 -14 -84 -14 -12 0 -45 -6 -73 -14 -53 -15 -116 -31 -176 -46 -19 -4
-51 -14 -70 -20 -19 -7 -51 -18 -70 -25 -281 -100 -526 -249 -705 -430 -100
-101 -115 -119 -190 -230 -144 -216 -226 -452 -255 -735 -24 -243 0 -550 57
-737 15 -50 15 -54 -7 -105 -27 -66 -100 -211 -129 -258 -11 -19 -24 -42 -28
-50 -3 -8 -18 -31 -33 -50 -36 -47 -42 -75 -20 -102 9 -13 48 -74 86 -136 38
-63 77 -126 86 -140 10 -15 20 -31 22 -37 7 -18 29 -139 36 -195 4 -30 12 -84
19 -120 31 -163 41 -216 44 -235 5 -41 47 -49 300 -53 242 -4 353 4 562 44
119 23 270 62 348 90 157 58 169 64 183 94 42 91 83 163 122 213 44 59 138
141 179 157 11 5 24 14 28 19 11 19 60 12 80 -11 10 -13 71 -79 135 -147 211
-228 307 -299 472 -350 40 -13 63 -4 236 89 64 35 403 238 471 282 14 10 35
22 46 28 11 6 32 18 47 28 81 52 153 93 238 134 167 80 230 98 345 98 l75 0
24 38 c21 33 129 179 188 256 35 45 48 83 57 170 5 45 14 115 21 156 6 41 18
120 26 175 43 291 54 337 105 438 41 80 70 126 118 181 37 43 41 52 36 84 -8
43 -31 123 -51 170 -8 18 -14 39 -14 47 0 7 -6 26 -14 42 -7 15 -20 44 -29 63
-94 216 -205 378 -377 550 -134 135 -149 148 -265 232 -110 80 -281 175 -440
243 -83 36 -239 87 -320 105 -22 5 -60 13 -85 19 -245 55 -606 82 -815 61z
m-1361 -1776 c39 -9 86 -22 104 -30 18 -8 39 -14 47 -14 7 0 26 -6 42 -14 15
-8 72 -36 126 -62 144 -70 215 -152 204 -233 -14 -105 -124 -257 -292 -404
-141 -122 -241 -184 -307 -187 -86 -5 -98 -1 -146 48 -71 70 -103 145 -133
312 -24 133 -25 289 -2 383 15 61 24 77 68 122 88 91 155 109 289 79z"/>
<path d="M5130 4374 c-56 -19 -104 -51 -146 -96 -71 -76 -164 -277 -164 -353
0 -16 -6 -66 -14 -110 -20 -110 -36 -216 -46 -305 -5 -41 -13 -95 -19 -120 -6
-25 -11 -64 -11 -86 0 -33 -10 -55 -50 -110 -27 -38 -53 -74 -59 -80 -5 -6
-30 -42 -56 -80 -26 -38 -51 -70 -56 -72 -20 -8 -6 -35 45 -85 68 -67 104
-124 127 -206 23 -80 24 -125 3 -210 -19 -82 -38 -121 -90 -191 -59 -78 -119
-128 -260 -217 -60 -38 -159 -100 -179 -113 -13 -8 -67 -42 -120 -75 -53 -33
-108 -68 -123 -77 -15 -10 -36 -22 -47 -28 -11 -6 -32 -18 -47 -28 -14 -9 -70
-44 -123 -77 -53 -33 -108 -68 -123 -77 -15 -10 -36 -22 -47 -28 -24 -12 -46
-26 -98 -62 -64 -45 -88 -34 -45 19 59 74 181 179 358 312 108 80 205 151 215
158 39 23 207 128 229 143 13 8 57 35 97 60 85 51 186 147 215 205 12 22 27
70 34 106 14 72 5 135 -29 189 -19 31 -86 100 -97 100 -4 0 -16 8 -27 18 -15
13 -37 17 -111 17 -103 0 -135 -9 -291 -86 -103 -51 -111 -56 -180 -99 -22
-14 -47 -29 -55 -33 -8 -4 -27 -15 -41 -25 -38 -25 -441 -267 -459 -276 -8 -4
-42 -22 -75 -41 -87 -48 -227 -117 -310 -151 -16 -6 -46 -19 -65 -27 -19 -8
-53 -22 -75 -30 -91 -34 -131 -50 -157 -63 -14 -8 -31 -14 -37 -14 -35 0 -186
-86 -294 -168 -53 -41 -152 -165 -180 -227 -10 -22 -25 -53 -33 -68 -8 -16
-14 -38 -14 -48 0 -11 -5 -30 -12 -42 -6 -12 -15 -38 -19 -57 -9 -43 -27 -96
-45 -133 -8 -16 -14 -34 -14 -42 0 -25 -106 -268 -197 -450 -88 -177 -148
-286 -260 -476 -35 -58 -63 -110 -63 -116 0 -6 7 -14 16 -17 20 -8 1342 -8
1371 0 12 3 56 45 97 93 163 190 411 417 565 518 31 20 81 55 111 77 31 23 63
46 71 51 9 6 110 73 225 150 115 77 215 143 224 148 8 4 27 15 42 25 64 41
173 109 211 131 23 13 60 36 82 50 42 27 48 30 130 75 28 15 64 36 80 47 17
10 39 23 50 28 11 5 44 30 72 56 40 35 63 69 98 140 25 52 45 98 45 104 0 5 6
22 14 38 17 36 38 83 66 153 12 30 33 80 47 110 36 83 54 122 68 155 12 28 48
104 130 280 18 39 35 77 39 85 3 8 10 22 15 30 5 8 34 67 65 130 41 86 56 130
60 175 3 33 6 323 7 645 l2 585 -26 57 c-34 73 -78 104 -162 112 -33 3 -67 3
-75 0z"/>
</g>
</svg>
