<?xml version="1.0" standalone="no"?>
<!DOCTYPE svg PUBLIC "-//W3C//DTD SVG 20010904//EN"
 "http://www.w3.org/TR/2001/REC-SVG-20010904/DTD/svg10.dtd">
<svg version="1.0" xmlns="http://www.w3.org/2000/svg"
 width="612.000000pt" height="444.000000pt" viewBox="0 0 612.000000 444.000000"
 preserveAspectRatio="xMidYMid meet">

<g transform="translate(0.000000,444.000000) scale(0.100000,-0.100000)"
fill="#f1f1f1" stroke="none">
<path d="M3894 4196 c-3 -8 -2 -21 2 -27 5 -9 2 -10 -9 -6 -9 3 -19 2 -22 -3
-9 -14 43 -67 113 -114 l67 -45 3 40 c5 60 -50 154 -60 103 -2 -12 -10 -6 -28
22 -27 41 -56 55 -66 30z"/>
<path d="M4177 4172 c-53 -55 -63 -163 -23 -247 l24 -50 -5 42 c-8 61 13 132
53 183 42 53 44 93 4 98 -17 2 -34 -6 -53 -26z"/>
<path d="M3740 4124 c0 -8 5 -24 11 -35 8 -16 7 -23 -5 -32 -31 -24 19 -57 87
-57 36 0 101 14 115 26 5 3 -87 87 -112 101 -32 19 -96 17 -96 -3z"/>
<path d="M4246 3972 c-24 -79 -17 -147 23 -232 17 -36 31 -71 31 -78 0 -23 24
-7 55 37 23 33 29 52 30 94 0 36 -4 51 -12 50 -7 -2 -13 7 -13 20 -1 31 -32
95 -67 136 l-29 34 -18 -61z"/>
<path d="M3950 3985 c6 -7 35 -27 64 -44 29 -16 71 -50 92 -74 38 -43 135
-207 161 -271 12 -30 13 -30 7 14 -3 25 -23 81 -44 126 -32 67 -55 96 -134
172 -79 77 -100 92 -127 92 -26 0 -29 -2 -19 -15z"/>
<path d="M3779 3970 c-25 -14 -12 -58 22 -75 39 -21 67 -19 140 9 l64 24 -55
26 c-57 27 -139 34 -171 16z"/>
<path d="M3986 3797 c-45 -33 18 -90 111 -102 38 -4 66 -14 82 -28 l23 -22
-16 40 c-39 94 -144 153 -200 112z"/>
<path d="M4745 3689 c-45 -12 -115 -77 -136 -123 -11 -23 -18 -63 -18 -91 l0
-50 13 40 c31 98 86 174 147 206 56 28 53 36 -6 18z"/>
<path d="M4330 3580 c-16 -16 -20 -33 -20 -82 0 -78 9 -95 40 -78 28 15 38 5
21 -22 -12 -19 -11 -20 8 -15 12 3 19 1 15 -4 -3 -5 5 -9 18 -9 30 0 109 40
121 61 16 26 0 68 -28 75 -14 3 -22 10 -20 15 10 15 -35 50 -55 44 -12 -4 -27
2 -39 14 -26 26 -36 26 -61 1z"/>
<path d="M4130 3561 c-8 -6 -26 -7 -40 -4 -31 6 -55 -18 -47 -47 3 -11 1 -23
-4 -26 -12 -7 -12 -71 0 -78 5 -4 35 -10 68 -15 32 -4 66 -12 76 -16 15 -6 17
-4 11 19 -7 29 6 35 26 12 34 -42 65 44 36 99 -28 51 -89 79 -126 56z"/>
<path d="M2955 3469 c-20 -18 -39 -47 -45 -68 -5 -20 -21 -52 -35 -70 -30 -42
-26 -63 27 -145 21 -32 38 -67 38 -76 0 -42 25 -24 84 64 36 53 35 108 -5 198
-21 49 -29 80 -25 99 3 16 4 29 1 29 -2 0 -20 -14 -40 -31z"/>
<path d="M3700 3451 c-65 -21 -122 -66 -149 -118 -17 -33 -14 -33 24 2 73 69
212 87 323 43 57 -24 61 -24 51 -6 -14 26 -123 77 -179 83 -25 2 -56 1 -70 -4z"/>
<path d="M2521 3406 c-12 -18 -21 -46 -21 -61 0 -43 21 -102 44 -124 24 -21
182 -86 168 -68 -6 7 -15 30 -22 53 -10 32 -21 45 -54 64 -55 29 -90 81 -91
131 0 21 -1 39 -2 39 -1 0 -11 -15 -22 -34z"/>
<path d="M4274 3388 c-9 -15 27 -41 39 -29 13 13 1 41 -17 41 -8 0 -18 -5 -22
-12z"/>
<path d="M4686 3381 c-51 -21 -82 -44 -98 -74 -8 -15 -2 -14 41 7 72 37 171
52 242 37 76 -16 174 -76 221 -134 41 -53 49 -48 18 12 -23 45 -104 121 -157
147 -57 28 -202 30 -267 5z"/>
<path d="M4002 3364 c-12 -8 -22 -24 -22 -35 0 -11 -7 -31 -16 -44 -16 -25
-11 -63 10 -77 6 -4 30 -8 53 -8 23 0 45 -4 48 -10 12 -19 47 -10 77 20 25 25
28 33 18 45 -7 8 -18 15 -26 15 -17 0 -13 48 4 59 11 6 7 13 -14 30 -32 25
-99 28 -132 5z"/>
<path d="M4211 3361 c-19 -12 -6 -43 16 -39 10 2 18 12 18 22 0 22 -14 29 -34
17z"/>
<path d="M4339 3350 c-12 -8 -12 -12 3 -26 17 -17 48 -13 48 5 0 17 -35 31
-51 21z"/>
<path d="M4270 3331 c0 -15 6 -21 21 -21 25 0 22 33 -4 38 -12 2 -17 -3 -17
-17z"/>
<path d="M4410 3330 c-21 -21 -21 -22 -3 -35 17 -13 17 -14 0 -20 -14 -6 -15
-10 -6 -21 9 -11 7 -14 -12 -14 -33 0 -55 -15 -39 -25 7 -4 18 -23 26 -41 20
-47 57 -70 89 -56 14 7 25 20 25 30 0 15 6 18 24 15 41 -8 80 79 41 93 -8 4
-15 18 -15 34 0 35 -19 50 -68 57 -32 4 -44 1 -62 -17z"/>
<path d="M3668 3300 c-45 -24 -95 -84 -108 -130 -6 -19 -9 -64 -9 -100 l1 -65
8 53 c15 100 86 172 192 193 42 8 69 9 100 1 49 -13 57 -9 37 14 -42 51 -156
68 -221 34z"/>
<path d="M4166 3305 c-3 -8 -2 -15 3 -15 5 0 14 7 21 15 10 12 10 15 -3 15 -8
0 -17 -7 -21 -15z"/>
<path d="M4305 3290 c-9 -15 4 -30 26 -30 22 0 24 11 7 28 -15 15 -25 15 -33
2z"/>
<path d="M4240 3280 c0 -5 7 -10 15 -10 8 0 15 5 15 10 0 6 -7 10 -15 10 -8 0
-15 -4 -15 -10z"/>
<path d="M4194 3269 c-10 -17 13 -36 27 -22 12 12 4 33 -11 33 -5 0 -12 -5
-16 -11z"/>
<path d="M2321 3248 c-27 -14 -42 -42 -18 -32 42 16 119 -59 175 -172 49 -97
80 -136 136 -169 86 -50 177 -42 243 23 l38 37 -35 3 c-68 6 -165 33 -206 57
-50 30 -91 79 -132 160 -37 73 -59 95 -98 93 -16 -1 -40 2 -54 5 -14 4 -35 2
-49 -5z"/>
<path d="M4253 3245 c-3 -9 -3 -18 0 -22 10 -10 37 6 37 22 0 20 -29 20 -37 0z"/>
<path d="M2710 3224 c0 -32 43 -95 79 -119 22 -13 59 -47 83 -75 l43 -50 6 36
c17 98 -25 151 -159 202 -43 17 -52 18 -52 6z"/>
<path d="M4183 3215 c-26 -18 -47 -77 -38 -105 8 -26 41 -43 69 -36 15 4 25
-1 34 -14 29 -48 99 -4 109 68 5 35 2 44 -23 67 l-28 26 -18 -23 c-10 -13 -18
-17 -18 -10 0 6 -5 12 -11 12 -6 0 -17 7 -25 15 -19 19 -24 19 -51 0z"/>
<path d="M2560 3131 c19 -34 50 -76 69 -92 39 -32 125 -62 210 -74 l55 -7 -18
28 c-48 75 -99 111 -238 164 -46 18 -89 35 -97 38 -8 3 0 -20 19 -57z"/>
<path d="M3157 3159 c-51 -12 -109 -43 -152 -81 -37 -32 -75 -95 -75 -123 0
-40 125 -45 196 -8 26 13 47 35 64 66 15 28 47 63 77 86 l53 39 -33 11 c-55
17 -90 20 -130 10z"/>
<path d="M4665 3161 c-99 -25 -189 -119 -256 -266 -16 -36 -29 -67 -29 -71 0
-3 20 21 45 55 121 160 248 227 420 219 46 -1 80 1 76 5 -13 13 -142 55 -186
60 -22 3 -53 2 -70 -2z"/>
<path d="M2227 3116 c-52 -19 -76 -42 -103 -101 -26 -54 -30 -99 -14 -157 15
-52 29 -57 23 -8 -17 121 111 236 222 200 42 -14 46 -30 6 -30 -27 0 -81 -33
-81 -49 0 -4 24 -3 54 2 63 12 90 6 139 -27 l36 -25 -31 52 c-74 124 -163 174
-251 143z"/>
<path d="M4095 3105 c50 -154 43 -292 -18 -395 l-21 -35 22 19 c13 11 37 49
55 85 44 90 49 178 14 253 -13 29 -32 62 -42 73 l-17 20 7 -20z"/>
<path d="M4360 3035 c0 -100 -65 -246 -133 -300 -26 -20 -28 -23 -10 -19 84
22 212 282 174 353 -20 36 -31 24 -31 -34z"/>
<path d="M3557 2937 c22 -64 30 -74 92 -117 65 -44 101 -83 101 -111 0 -17 -4
-16 -46 6 -58 31 -91 31 -128 2 l-29 -24 34 -13 c19 -7 63 -16 99 -19 62 -6
65 -7 73 -38 17 -59 -54 -208 -133 -278 -13 -11 -36 -37 -51 -59 l-28 -38 -16
40 c-11 28 -25 44 -44 50 -20 7 -36 28 -60 76 -32 64 -59 83 -76 56 -4 -6 -24
-22 -46 -36 -53 -33 -67 -65 -45 -98 14 -23 20 -25 66 -19 56 6 105 -9 121
-38 5 -10 9 -45 8 -77 -1 -32 4 -68 10 -81 8 -14 10 -37 7 -57 -5 -23 -2 -41
10 -59 18 -28 16 -51 -16 -140 -22 -62 -43 -87 -100 -118 -39 -21 -32 -32 28
-42 46 -7 39 -12 136 95 15 17 53 49 83 71 82 61 89 105 28 185 -13 17 -29 50
-34 73 -5 23 -16 53 -25 67 -17 25 -16 25 38 78 59 58 147 106 194 106 33 0
46 -12 82 -79 33 -60 90 -98 165 -111 33 -6 70 -15 82 -20 20 -8 24 -6 29 16
4 14 -1 44 -11 69 -26 70 -102 123 -213 149 l-57 13 58 8 c169 22 332 -26 469
-139 37 -31 79 -73 93 -93 14 -21 25 -34 25 -29 0 13 -39 76 -78 124 -35 44
-123 102 -155 102 -10 0 -15 5 -12 10 3 6 15 10 27 10 35 0 88 31 103 61 20
37 19 42 -4 29 -11 -5 -39 -10 -63 -10 -25 0 -56 -8 -76 -20 -18 -11 -46 -20
-63 -20 l-30 0 20 29 c25 34 42 77 34 85 -9 9 -63 -23 -63 -38 0 -7 -9 -25
-20 -38 -19 -24 -26 -26 -142 -30 -106 -4 -134 -9 -206 -36 -46 -17 -82 -28
-80 -24 50 96 62 133 66 204 4 71 7 81 40 119 30 35 86 166 77 177 -5 6 -69
-30 -92 -51 -17 -15 -23 -32 -23 -66 0 -84 -13 -78 -68 31 -53 106 -74 129
-140 152 l-39 14 14 -41z"/>
<path d="M2871 2869 c-54 -81 -76 -154 -61 -207 9 -36 83 -134 92 -122 77 110
91 144 85 209 -8 79 -34 159 -57 171 -16 8 -24 1 -59 -51z"/>
<path d="M2970 2895 c0 -9 20 -36 45 -60 25 -24 58 -70 72 -102 23 -49 27 -72
28 -150 0 -80 2 -93 17 -93 13 0 18 13 24 56 14 113 -30 236 -111 314 -56 52
-75 61 -75 35z"/>
<path d="M2809 2840 c-33 -19 -99 -28 -139 -18 -50 13 -76 6 -119 -30 -23 -19
-35 -38 -36 -58 -1 -16 -8 -50 -15 -75 -9 -36 -9 -52 0 -69 10 -19 13 -20 33
-7 12 8 43 17 68 21 76 11 126 59 199 189 17 31 30 57 28 57 -1 0 -10 -5 -19
-10z"/>
<path d="M4448 2750 c-210 -33 -429 -129 -523 -229 -28 -30 -25 -29 58 17 160
90 345 152 511 172 124 15 233 2 365 -43 91 -31 95 -34 135 -90 38 -54 41 -64
41 -122 0 -49 -5 -70 -21 -92 -36 -48 -82 -73 -135 -73 -26 0 -50 -4 -53 -9
-11 -17 27 -36 69 -35 87 2 177 86 190 178 6 38 -1 71 -30 140 -14 33 110 -60
201 -149 238 -235 315 -518 210 -776 -79 -196 -224 -339 -399 -394 -220 -70
-467 -26 -600 107 -54 54 -104 150 -113 218 -15 114 57 214 170 236 39 7 39 7
15 20 -57 32 -129 -1 -187 -84 -36 -53 -37 -57 -37 -141 0 -76 4 -94 32 -153
80 -169 239 -263 464 -275 174 -9 337 33 447 117 29 22 54 40 56 40 2 0 -3
-18 -10 -40 -66 -192 -13 -420 122 -527 96 -75 195 -99 295 -70 121 36 189
139 168 254 -13 67 -24 71 -25 9 -3 -122 -102 -219 -224 -219 -181 0 -325 193
-306 412 7 89 63 261 114 351 51 91 70 133 88 204 22 83 22 251 0 336 -78 303
-393 600 -731 690 -91 24 -268 34 -357 20z"/>
<path d="M5420 2715 c-27 -33 -116 -48 -238 -40 -63 3 -122 9 -131 12 -9 2 22
-20 68 -50 170 -112 328 -136 461 -70 74 36 135 94 146 138 7 30 7 30 -45 -17
-97 -87 -203 -120 -335 -104 -31 4 -56 12 -56 17 0 5 6 9 13 9 24 0 102 58
120 89 19 33 18 41 -3 16z"/>
<path d="M3025 2464 c-57 -30 -66 -58 -40 -121 14 -33 17 -35 33 -21 44 39
127 32 173 -14 16 -17 31 -29 33 -27 8 10 -21 140 -34 152 -15 14 -104 47
-124 47 -6 -1 -24 -8 -41 -16z"/>
<path d="M5310 2455 c28 -34 134 -105 170 -115 71 -19 127 34 85 80 -15 17
-32 20 -109 20 -60 1 -100 6 -116 15 -33 19 -46 19 -30 0z"/>
<path d="M2881 2397 c-6 -8 -25 -17 -41 -20 -43 -9 -58 -65 -40 -155 8 -37 13
-93 12 -124 -3 -62 11 -99 50 -135 l23 -22 2 22 c1 12 5 45 9 73 5 43 2 61
-21 112 -44 98 -20 139 60 103 31 -14 45 -16 48 -8 2 7 -7 46 -22 87 -20 58
-31 76 -47 78 -11 2 -26 -3 -33 -11z"/>
<path d="M5261 2291 c26 -149 58 -192 104 -141 17 19 17 22 1 64 -14 36 -109
176 -120 176 -1 0 5 -44 15 -99z"/>
<path d="M2095 2333 c-16 -2 -63 -15 -103 -30 -118 -41 -202 -138 -202 -232 0
-17 6 -21 31 -21 49 0 88 -30 130 -101 64 -109 136 -159 231 -159 83 0 168 49
168 96 0 24 -54 94 -73 94 -6 0 -33 -23 -59 -51 -26 -28 -48 -46 -48 -40 0 22
29 69 56 90 l26 21 -27 10 c-39 15 -46 13 -82 -22 -41 -40 -50 -33 -17 15 21
31 22 37 8 37 -9 0 -32 -9 -50 -21 -43 -26 -44 -9 -2 26 25 21 29 28 17 36 -8
5 -20 9 -26 9 -16 0 -95 31 -90 36 3 3 75 -14 125 -30 21 -7 23 -6 13 12 -6
12 -11 42 -10 69 l1 48 9 -45 c9 -44 35 -90 55 -97 6 -2 9 26 7 69 l-2 73 13
-72 c7 -39 18 -79 25 -87 24 -28 34 -6 27 60 -4 34 -2 65 2 68 5 3 12 -26 14
-64 3 -44 12 -80 24 -97 l18 -28 6 30 c4 21 16 36 45 52 121 68 49 200 -131
238 -38 8 -76 14 -84 13 -8 0 -28 -3 -45 -5z"/>
<path d="M3063 2305 c-58 -25 -62 -75 -6 -75 42 0 105 -32 124 -63 l18 -31 11
28 c23 61 -2 115 -66 142 -40 17 -41 17 -81 -1z"/>
<path d="M2732 2294 c-13 -9 -24 -30 -28 -54 -4 -22 -15 -47 -25 -56 -30 -27
-24 -71 16 -116 31 -33 35 -44 29 -72 -11 -62 41 -121 91 -102 22 8 19 59 -6
101 -18 30 -20 45 -15 93 5 41 2 71 -9 101 -9 27 -13 58 -9 82 7 44 -5 50 -44
23z"/>
<path d="M3315 2283 c-34 -7 -75 -25 -75 -34 0 -5 18 -9 40 -9 94 0 123 -115
42 -165 -18 -11 -56 -35 -85 -54 -40 -26 -69 -35 -126 -43 -40 -5 -91 -18
-112 -28 -21 -11 -47 -20 -58 -20 -59 0 -19 -65 56 -91 28 -9 62 -24 75 -33
32 -21 54 -12 75 28 47 92 99 130 161 120 35 -6 41 -3 61 24 12 17 31 32 44
34 28 4 34 42 13 92 -10 23 -13 53 -10 84 4 31 1 53 -8 65 -15 19 -63 35 -93
30z"/>
<path d="M812 2235 c-17 -37 -15 -89 5 -130 9 -19 19 -35 22 -35 9 0 31 75 31
102 0 20 -34 88 -43 88 -2 0 -9 -11 -15 -25z"/>
<path d="M2489 2239 c-30 -11 -49 -46 -49 -89 0 -30 -7 -38 -67 -86 -23 -18
-33 -34 -33 -54 0 -31 47 -130 62 -130 5 0 30 12 56 28 60 35 143 36 216 4 43
-19 47 -20 41 -4 -5 9 -11 40 -14 68 -5 38 -15 61 -39 88 -34 39 -43 91 -19
115 14 14 -6 34 -60 57 -37 16 -57 17 -94 3z"/>
<path d="M2881 2226 c-10 -12 -7 -27 15 -72 24 -51 26 -64 21 -134 l-6 -77 27
2 c15 1 42 9 60 19 18 9 56 20 85 23 29 3 59 10 67 14 10 6 7 8 -12 5 -40 -7
-110 13 -136 37 -13 12 -34 43 -47 68 -13 25 -31 51 -39 58 -20 17 -21 51 -2
51 8 0 18 5 21 10 10 16 -41 12 -54 -4z"/>
<path d="M450 2221 c-115 -23 -220 -136 -220 -235 0 -36 20 -93 40 -118 l19
-23 -10 38 c-28 104 42 233 148 273 93 36 237 -8 315 -95 56 -63 98 -157 111
-247 14 -93 -3 -283 -32 -368 -34 -97 -46 -211 -32 -306 25 -170 80 -285 195
-407 155 -165 355 -274 597 -323 133 -28 313 -24 429 10 225 65 484 239 564
381 17 30 10 25 -55 -32 -161 -144 -347 -254 -515 -305 -77 -24 -106 -27 -224
-28 -78 0 -153 5 -177 12 -58 17 -137 96 -150 151 -24 94 38 196 126 208 32 4
41 10 39 22 -3 12 -15 16 -51 15 -93 -1 -162 -89 -162 -205 0 -59 4 -72 33
-113 l33 -45 -38 13 c-205 72 -414 231 -505 381 -90 148 -119 333 -79 500 69
286 259 462 555 514 170 31 338 -19 438 -129 92 -100 119 -197 79 -285 -22
-49 -82 -104 -123 -112 -37 -7 -18 -23 28 -23 80 0 160 113 158 225 0 49 -7
73 -35 125 -91 172 -263 260 -484 247 -118 -8 -189 -27 -305 -83 -77 -38 -109
-61 -170 -123 l-76 -76 4 56 c10 134 -43 288 -133 387 -53 58 -115 94 -202
117 -61 16 -78 17 -133 6z"/>
<path d="M3250 2191 c0 -39 -42 -88 -86 -100 -69 -19 -150 33 -142 91 4 26 2
28 -28 28 -41 0 -62 -23 -43 -46 8 -9 23 -35 34 -57 29 -59 65 -81 128 -81 70
0 181 39 207 71 39 50 13 123 -45 123 -21 0 -25 -5 -25 -29z"/>
<path d="M3053 2193 c-20 -7 -15 -33 6 -33 10 0 26 -11 35 -24 30 -46 86 -44
71 3 -9 30 -82 64 -112 54z"/>
<path d="M5408 2150 c6 -68 -13 -131 -55 -180 -50 -58 -30 -65 22 -7 54 59 75
133 56 197 -16 55 -29 50 -23 -10z"/>
<path d="M4836 2154 c-3 -9 -6 -17 -6 -19 0 -2 26 -18 59 -35 39 -21 65 -43
77 -65 10 -19 20 -33 22 -31 7 8 -40 88 -75 126 -37 42 -67 51 -77 24z"/>
<path d="M1192 2102 c-24 -13 -51 -37 -60 -52 -10 -15 -23 -25 -30 -22 -7 2
-24 1 -38 -2 -31 -8 -49 -49 -64 -142 -5 -38 -12 -79 -15 -92 -4 -18 10 -10
78 42 101 78 135 125 158 219 10 39 17 72 16 72 -1 1 -22 -9 -45 -23z"/>
<path d="M1341 2111 c-11 -11 -36 -52 -55 -90 l-35 -69 45 25 c70 39 126 97
122 125 -4 31 -49 37 -77 9z"/>
<path d="M5017 2112 c-22 -25 -20 -73 6 -152 19 -58 25 -65 50 -68 34 -4 46
-28 22 -46 -12 -8 -16 -19 -12 -30 10 -25 42 -15 41 12 0 12 7 24 16 27 31 10
110 129 110 165 0 33 -28 60 -61 60 -14 0 -30 9 -37 21 -10 15 -20 19 -37 15
-13 -3 -27 -2 -30 4 -10 16 -51 11 -68 -8z"/>
<path d="M4891 2018 c-4 -13 -10 -30 -13 -38 -2 -8 -15 -15 -28 -15 -18 0 -31
-11 -47 -40 -12 -22 -23 -48 -23 -58 0 -21 44 -42 113 -51 44 -7 48 -6 57 18
6 16 17 26 29 26 44 0 32 95 -18 149 -34 37 -58 40 -70 9z"/>
<path d="M3395 1970 c-12 -4 -27 -15 -34 -24 -8 -10 -29 -16 -55 -16 -51 0
-64 -9 -115 -79 -50 -67 -75 -85 -107 -77 -37 10 -21 -10 27 -35 22 -11 62
-23 88 -26 41 -5 52 -2 71 17 20 20 22 29 17 89 -3 36 -2 75 2 86 13 32 24
-92 13 -142 -6 -24 -6 -43 -2 -43 5 0 10 3 12 8 2 4 22 19 45 34 32 21 45 38
58 77 9 28 21 53 26 56 10 7 12 45 3 69 -7 18 -18 19 -49 6z"/>
<path d="M5215 1908 c-38 -33 -93 -128 -74 -128 6 0 8 -8 4 -20 -14 -44 53
-99 138 -115 88 -17 153 45 97 92 -22 19 -26 43 -9 60 20 20 1 57 -38 78 -24
13 -39 28 -41 43 -5 32 -34 28 -77 -10z"/>
<path d="M5472 1920 c-7 -14 -24 -40 -37 -59 -14 -19 -25 -45 -25 -58 0 -21 4
-24 27 -21 23 2 29 11 40 48 8 25 12 61 11 80 l-3 35 -13 -25z"/>
<path d="M2850 1864 c-16 -66 -7 -87 36 -92 40 -5 67 -33 103 -107 26 -52 38
-66 70 -79 22 -8 44 -23 49 -32 10 -19 80 -44 122 -44 13 0 44 -7 67 -16 63
-24 94 -8 149 78 26 40 55 73 70 78 43 17 16 30 -59 30 -123 0 -305 19 -345
35 -20 9 -48 27 -62 39 -14 13 -49 36 -78 51 -44 21 -57 34 -73 71 -11 24 -24
44 -28 44 -4 0 -14 -25 -21 -56z"/>
<path d="M2473 1885 c-42 -18 -111 -88 -119 -121 -5 -21 -1 -31 25 -54 19 -18
31 -39 31 -54 0 -18 9 -30 30 -41 24 -12 30 -22 30 -48 0 -46 23 -73 81 -98
34 -15 60 -36 81 -66 42 -58 153 -113 228 -113 45 0 55 4 95 41 68 62 68 79 3
147 -90 95 -138 166 -159 235 -28 94 -66 141 -134 166 -64 24 -145 27 -192 6z"/>
<path d="M3700 1881 c-55 -17 -116 -56 -162 -103 -51 -52 -60 -78 -29 -78 11
0 48 -13 83 -30 34 -16 68 -30 74 -30 6 0 37 -22 68 -50 31 -27 61 -50 66 -50
5 0 16 8 25 17 18 17 18 15 0 198 -10 97 -13 105 -50 121 -38 15 -39 16 -75 5z"/>
<path d="M2786 1873 l-38 -4 21 -23 c12 -12 34 -62 51 -110 26 -79 74 -176 85
-176 3 0 -4 23 -15 50 -11 28 -20 68 -20 90 0 29 -7 45 -30 68 -31 32 -37 60
-20 93 6 10 9 18 8 17 -2 -1 -20 -3 -42 -5z"/>
<path d="M5020 1865 c-10 -11 -10 -19 -2 -27 15 -15 44 -2 40 19 -4 23 -22 27
-38 8z"/>
<path d="M1325 1825 l-70 -24 73 0 c80 -1 96 -7 160 -58 77 -63 145 -43 109
32 -35 74 -142 93 -272 50z"/>
<path d="M4683 1815 c-22 -9 -33 -21 -33 -35 0 -30 25 -25 68 15 31 29 34 34
17 34 -11 0 -35 -6 -52 -14z"/>
<path d="M4968 1824 c-11 -10 3 -34 19 -34 8 0 13 7 11 17 -3 18 -20 27 -30
17z"/>
<path d="M5030 1796 c0 -15 24 -28 34 -19 7 7 -13 33 -25 33 -5 0 -9 -6 -9
-14z"/>
<path d="M4767 1782 c-21 -23 -21 -32 1 -48 14 -11 15 -16 4 -34 -15 -25 -8
-40 19 -40 16 0 19 -7 19 -40 0 -48 16 -58 58 -36 61 31 97 110 72 155 -29 55
-138 82 -173 43z"/>
<path d="M1772 1785 c2 -5 12 -27 23 -47 18 -38 18 -38 -4 -110 -27 -86 -25
-122 6 -126 63 -9 84 98 39 193 -22 44 -73 117 -64 90z"/>
<path d="M4940 1782 c0 -12 19 -26 26 -19 2 2 -2 10 -11 17 -9 8 -15 8 -15 2z"/>
<path d="M5081 1776 c-8 -10 -8 -16 3 -25 10 -9 16 -8 26 3 12 15 6 36 -9 36
-5 0 -14 -6 -20 -14z"/>
<path d="M5000 1760 c0 -12 35 -31 44 -23 8 9 -14 33 -30 33 -8 0 -14 -4 -14
-10z"/>
<path d="M2896 1718 c-8 -46 16 -122 62 -194 36 -55 69 -92 75 -83 2 2 17 21
35 42 26 31 30 41 22 57 -6 11 -18 20 -27 20 -23 0 -81 63 -102 112 -10 24
-27 51 -39 61 -19 18 -20 17 -26 -15z"/>
<path d="M658 1688 c3 -33 -4 -60 -29 -113 -37 -81 -48 -146 -27 -165 8 -8 12
-26 10 -47 -4 -29 1 -39 39 -73 46 -43 58 -46 38 -8 -16 27 -18 191 -6 318 8
76 7 88 -10 108 l-18 23 3 -43z"/>
<path d="M5062 1719 c2 -7 10 -15 17 -17 8 -3 12 1 9 9 -2 7 -10 15 -17 17 -8
3 -12 -1 -9 -9z"/>
<path d="M5008 1689 c17 -17 35 -28 42 -24 14 9 -6 35 -26 35 -8 0 -14 5 -14
10 0 6 -7 10 -16 10 -12 0 -8 -8 14 -31z"/>
<path d="M5113 1691 c-5 -3 -12 -14 -16 -23 -3 -10 -16 -18 -27 -18 -39 0 -64
-102 -40 -164 13 -36 55 -44 83 -18 14 13 30 19 43 16 59 -15 81 103 32 168
-27 35 -57 51 -75 39z"/>
<path d="M5560 1662 c0 -16 -20 -70 -45 -121 -56 -115 -62 -151 -40 -227 l17
-59 44 130 c50 149 59 197 50 260 -8 50 -26 61 -26 17z"/>
<path d="M714 1614 c-5 -38 -9 -125 -9 -194 0 -111 2 -129 22 -159 l21 -35 0
55 c0 30 10 94 22 143 24 100 20 139 -24 216 l-24 43 -8 -69z"/>
<path d="M4453 1656 c-26 -23 -28 -29 -28 -103 1 -60 6 -88 23 -123 12 -25 20
-36 16 -25 -19 65 -17 85 18 143 44 72 53 99 38 117 -17 21 -35 19 -67 -9z"/>
<path d="M4962 1635 c-6 -14 -16 -25 -21 -25 -6 0 -26 -14 -46 -31 -36 -32
-46 -59 -21 -59 8 0 16 -10 18 -22 2 -18 10 -23 32 -23 45 0 69 40 70 116 1
67 -13 86 -32 44z"/>
<path d="M5613 1634 c8 -43 -10 -137 -47 -249 -45 -134 -48 -149 -32 -170 12
-16 13 -15 14 15 1 31 9 45 88 155 29 40 35 57 33 90 -2 22 0 50 5 63 5 16 1
35 -18 67 -33 56 -51 68 -43 29z"/>
<path d="M3512 1623 c-7 -3 -26 -34 -42 -69 -44 -97 -101 -124 -179 -85 -21
11 -53 20 -72 20 -19 -1 -49 2 -67 6 -42 10 -74 -11 -101 -68 -36 -74 -25
-161 23 -192 22 -15 32 -15 76 -4 40 10 60 10 95 1 37 -10 52 -9 82 3 21 8 80
19 132 24 108 10 135 28 162 109 11 34 25 54 52 71 47 31 56 63 31 110 -31 58
-134 98 -192 74z"/>
<path d="M1310 1590 c-26 -26 -30 -111 -9 -168 8 -20 12 -22 24 -12 8 7 15 17
15 23 0 5 16 29 35 53 36 44 46 84 20 84 -8 0 -19 9 -25 20 -6 11 -17 20 -25
20 -8 0 -24 -9 -35 -20z"/>
<path d="M1145 1560 c-10 -19 -20 -27 -30 -24 -38 15 -67 -62 -45 -117 26 -62
113 -104 134 -64 6 11 21 30 34 43 36 36 29 134 -13 175 -27 27 -62 21 -80
-13z"/>
<path d="M2275 1577 c-119 -47 -201 -124 -230 -215 -6 -21 -4 -22 19 -16 30 7
31 2 11 -56 -29 -83 -13 -186 50 -310 36 -72 43 -78 62 -59 6 6 62 15 125 19
136 10 210 34 267 90 52 51 68 83 82 169 15 91 4 130 -55 194 -69 74 -102 58
-72 -35 9 -28 16 -67 15 -87 -1 -36 -1 -36 -10 9 -15 80 -29 120 -44 120 -25
0 -39 -43 -45 -145 l-6 -100 -8 82 c-6 58 -12 80 -21 77 -20 -8 -33 -48 -41
-125 -11 -113 -24 -127 -17 -19 6 107 6 107 -56 11 -51 -79 -53 -70 -5 16 20
36 33 67 30 70 -3 4 -34 -1 -67 -11 -34 -9 -64 -14 -67 -12 -7 8 79 46 104 46
36 0 84 21 84 37 0 13 -13 15 -75 11 -73 -3 -97 4 -52 16 12 3 52 6 88 6 53 0
72 4 95 22 l28 23 -39 7 c-22 4 -62 5 -90 2 -42 -4 -47 -3 -31 7 11 7 62 14
113 17 51 3 96 8 98 12 3 4 -11 20 -30 34 -19 15 -35 33 -35 40 0 7 -12 25
-26 40 -22 21 -36 26 -73 25 -25 0 -59 -6 -76 -12z"/>
<path d="M1405 1494 c-31 -34 -49 -97 -38 -131 18 -53 131 -83 181 -47 27 19
29 60 4 66 -15 4 -18 12 -14 36 4 27 1 31 -24 34 -25 2 -29 8 -32 36 -3 27 -7
32 -28 32 -14 0 -36 -12 -49 -26z"/>
<path d="M4634 1405 c-9 -35 13 -82 50 -110 47 -35 104 -47 198 -38 l83 7 -64
13 c-71 14 -105 33 -136 72 -64 84 -118 107 -131 56z"/>
<path d="M1257 1384 c-10 -11 3 -24 24 -24 23 0 25 15 3 24 -19 7 -19 7 -27 0z"/>
<path d="M1633 1353 c-9 -16 -26 -36 -37 -46 -21 -18 -21 -18 4 -12 38 10 75
40 78 64 5 31 -24 27 -45 -6z"/>
<path d="M1310 1350 c0 -5 5 -10 10 -10 6 0 10 5 10 10 0 6 -4 10 -10 10 -5 0
-10 -4 -10 -10z"/>
<path d="M960 1332 c-30 -14 -35 -22 -35 -51 0 -23 6 -37 20 -45 11 -6 22 -12
24 -14 3 -1 4 -22 2 -47 -2 -48 14 -65 64 -65 17 0 29 -8 37 -25 13 -29 38
-32 60 -7 42 47 84 172 58 172 -7 0 -10 6 -7 14 10 25 -30 63 -77 75 -63 16
-105 14 -146 -7z"/>
<path d="M1220 1331 c0 -11 26 -22 34 -14 3 3 3 10 0 14 -7 12 -34 11 -34 0z"/>
<path d="M1282 1308 c3 -7 15 -15 28 -16 21 -3 22 -2 11 12 -16 19 -44 21 -39
4z"/>
<path d="M1365 1300 c3 -5 13 -10 21 -10 8 0 12 5 9 10 -3 6 -13 10 -21 10 -8
0 -12 -4 -9 -10z"/>
<path d="M1215 1280 c-8 -13 3 -30 20 -30 14 0 27 24 18 34 -10 9 -31 7 -38
-4z"/>
<path d="M1273 1258 c2 -7 10 -13 17 -13 7 0 15 6 18 13 2 7 -5 12 -18 12 -13
0 -20 -5 -17 -12z"/>
<path d="M1337 1264 c-11 -11 3 -24 24 -24 12 0 19 5 17 13 -5 14 -31 21 -41
11z"/>
<path d="M1395 1241 c-3 -17 -14 -31 -26 -34 -29 -8 -24 -49 14 -99 55 -72
117 -79 117 -13 0 28 4 35 19 35 24 0 35 15 50 69 12 40 11 46 -5 58 -11 8
-46 13 -90 13 -72 0 -72 0 -79 -29z"/>
<path d="M1220 1225 c-10 -12 -10 -19 -2 -27 8 -8 6 -15 -8 -27 -24 -21 -70
-132 -70 -169 0 -43 47 -78 81 -61 11 6 21 4 28 -5 15 -17 114 -19 137 -2 24
18 20 64 -11 127 -39 77 -61 99 -95 92 -22 -4 -29 -1 -32 13 -2 11 3 24 11 30
13 10 13 14 2 28 -17 20 -25 20 -41 1z"/>
<path d="M3512 1210 c-42 -39 -88 -41 -102 -5 -11 30 -13 30 -51 8 -35 -21
-36 -36 -6 -67 19 -19 37 -24 109 -29 47 -3 102 -13 122 -21 42 -18 48 -29 9
-16 -16 5 -67 13 -115 18 -80 7 -88 6 -88 -9 0 -37 52 -69 150 -93 72 -18 115
-34 108 -41 -2 -2 -26 2 -53 10 -26 8 -73 15 -102 15 -52 0 -54 -1 -48 -22 10
-34 32 -52 110 -94 70 -37 125 -80 125 -97 0 -5 -18 7 -40 26 -37 32 -134 77
-165 77 -9 0 -8 -10 6 -37 26 -54 38 -155 28 -238 -18 -137 -25 -138 -32 -5
-7 122 -19 189 -49 260 l-14 34 -28 -89 c-16 -50 -37 -108 -48 -130 -23 -44
-78 -118 -84 -112 -2 2 18 51 45 108 27 57 57 131 66 163 19 66 16 139 -8 163
-13 13 -16 11 -27 -23 -21 -66 -90 -192 -129 -236 -36 -40 -35 -36 35 108 79
164 90 198 74 240 l-11 29 -37 -71 c-42 -79 -131 -208 -139 -200 -6 5 18 49
92 168 35 58 49 91 53 128 6 63 -8 70 -75 37 -26 -14 -67 -30 -91 -36 -53 -15
-87 -51 -113 -121 -26 -68 -38 -208 -19 -220 7 -4 16 -31 21 -59 18 -118 116
-240 224 -280 33 -12 79 -28 103 -37 57 -21 102 -67 102 -106 0 -16 3 -28 8
-26 126 57 256 180 315 298 54 109 70 185 64 300 -10 194 -100 341 -218 355
-39 5 -48 2 -77 -25z"/>
<path d="M1301 1217 c-25 -25 -2 -59 24 -37 8 7 15 18 15 25 0 18 -25 26 -39
12z"/>
<path d="M2766 1165 c-31 -103 -82 -175 -176 -247 -87 -67 -209 -125 -300
-144 -151 -31 -369 26 -487 128 l-37 33 22 -32 c51 -72 147 -131 235 -142 l52
-7 -42 -22 c-47 -24 -83 -65 -83 -94 0 -15 4 -18 18 -13 9 4 37 14 62 22 25 9
59 28 75 43 58 54 93 48 60 -10 -19 -33 -19 -80 -1 -80 19 0 46 39 46 66 0 43
31 64 131 88 98 24 159 52 239 105 24 17 45 29 47 28 1 -2 -4 -21 -12 -42 -18
-50 -19 -140 -3 -200 11 -42 10 -49 -14 -99 -27 -55 -50 -196 -32 -196 15 0
82 69 89 90 3 11 1 36 -4 57 -6 21 -11 44 -11 52 0 20 23 -1 87 -81 59 -75 91
-96 163 -107 l48 -8 -28 46 c-25 41 -39 51 -122 87 -74 32 -97 47 -112 74 -20
33 -20 34 0 26 10 -4 45 -10 76 -13 54 -5 58 -4 90 28 l33 33 -57 8 c-40 5
-69 3 -97 -7 -52 -18 -76 -2 -85 58 -10 65 9 134 74 262 57 114 85 202 78 247
-3 16 -9 5 -22 -37z"/>
<path d="M876 1164 c-8 -20 -8 -79 1 -128 l6 -38 19 48 c30 76 37 104 31 120
-7 19 -49 18 -57 -2z"/>
<path d="M5017 1136 c-113 -41 -223 -141 -278 -252 -36 -72 -51 -172 -41 -265
6 -56 10 -64 30 -67 16 -3 22 -10 22 -28 0 -86 147 -216 283 -249 25 -7 27 -5
27 21 0 16 9 51 21 79 19 46 24 51 48 48 22 -4 31 4 58 44 50 74 65 121 70
213 6 101 -10 167 -62 253 -32 52 -40 76 -60 171 -6 28 -6 28 -27 10 -30 -28
-58 -89 -58 -126 0 -40 28 -102 63 -144 29 -34 33 -44 17 -44 -14 0 -49 42
-81 96 -20 35 -28 42 -33 29 -16 -42 -5 -82 43 -157 58 -90 40 -94 -21 -5 -35
51 -42 57 -50 42 -16 -28 0 -94 37 -156 39 -64 46 -86 13 -43 -12 16 -37 46
-55 66 l-32 37 -7 -35 c-7 -36 0 -126 12 -174 4 -14 4 -22 0 -19 -33 30 -48
252 -21 316 8 19 15 37 15 40 0 14 -27 -17 -61 -70 -21 -33 -39 -54 -39 -46 1
26 41 103 82 159 23 30 35 50 27 44 -77 -60 -112 -84 -122 -84 -7 0 -5 5 5 10
13 8 135 146 185 211 18 23 45 89 36 89 -5 -1 -25 -7 -46 -14z"/>
<path d="M1022 1047 c-61 -65 -68 -212 -12 -262 24 -22 25 -18 4 31 -22 52
-15 146 14 203 27 50 24 60 -6 28z"/>
<path d="M1420 1031 c65 -84 151 -127 163 -81 4 17 -4 22 -60 39 -42 13 -79
32 -101 53 l-36 33 34 -44z"/>
<path d="M1072 844 c-12 -8 -22 -23 -22 -33 0 -26 51 -86 121 -142 60 -48 81
-61 62 -36 -6 6 -23 44 -38 84 -25 65 -76 143 -94 143 -3 0 -17 -7 -29 -16z"/>
<path d="M945 611 c-51 -22 -59 -77 -14 -98 22 -11 36 -10 85 4 32 10 85 17
117 16 54 -1 57 0 38 14 -70 48 -186 81 -226 64z"/>
</g>
</svg>
