<?xml version="1.0" standalone="no"?>
<!DOCTYPE svg PUBLIC "-//W3C//DTD SVG 20010904//EN"
 "http://www.w3.org/TR/2001/REC-SVG-20010904/DTD/svg10.dtd">
<svg version="1.0" xmlns="http://www.w3.org/2000/svg"
 width="296.000000pt" height="294.000000pt" viewBox="0 0 296.000000 294.000000"
 preserveAspectRatio="xMidYMid meet">

<g transform="translate(0.000000,294.000000) scale(0.100000,-0.100000)"
fill="#000000" stroke="none">
<path d="M1255 2895 c-520 -77 -971 -456 -1143 -960 -57 -167 -75 -281 -75
-470 0 -138 4 -190 22 -275 78 -370 261 -659 566 -892 80 -61 236 -147 343
-188 312 -119 713 -119 1024 0 59 23 212 100 273 138 76 48 220 170 282 239
184 207 296 430 354 703 32 150 32 400 0 550 -102 481 -397 849 -839 1048
-239 108 -534 147 -807 107z m472 -21 c444 -68 873 -401 1056 -819 89 -201
117 -328 124 -547 4 -127 1 -189 -11 -261 -54 -319 -190 -581 -413 -798 -217
-212 -439 -329 -744 -393 -83 -18 -268 -25 -376 -16 -349 31 -632 161 -886
409 -223 217 -359 479 -413 798 -20 119 -15 389 11 503 38 174 122 371 217
515 65 98 217 258 318 334 327 248 699 340 1117 275z"/>
<path d="M1265 2849 c-285 -51 -502 -154 -707 -333 -127 -111 -217 -220 -296
-361 -380 -670 -148 -1519 521 -1903 220 -126 434 -182 698 -182 200 0 334 24
506 92 303 119 551 332 712 613 242 422 242 953 -1 1380 -160 282 -418 503
-725 621 -77 29 -152 49 -268 70 -89 16 -358 17 -440 3z m350 -19 c525 -49
993 -417 1163 -915 55 -163 67 -240 67 -450 0 -210 -12 -287 -67 -450 -172
-503 -639 -867 -1175 -916 -498 -45 -985 187 -1262 600 -106 160 -168 306
-208 491 -26 120 -26 430 0 550 112 520 491 916 1013 1056 146 39 296 50 469
34z"/>
<path d="M1429 2639 l-25 -52 -30 46 c-21 34 -35 47 -52 47 -23 0 -21 -3 22
-64 36 -51 46 -73 46 -104 0 -26 5 -42 15 -45 20 -8 26 6 24 56 -2 33 5 56 29
99 37 65 38 68 14 68 -12 0 -27 -18 -43 -51z"/>
<path d="M1810 2557 c-17 -45 -32 -93 -33 -107 -3 -37 25 -31 37 8 9 32 11 33
47 27 32 -6 42 -3 64 19 46 46 29 89 -47 120 l-36 16 -32 -83z m89 24 c9 -6
11 -18 7 -35 -5 -21 -12 -26 -36 -26 -17 0 -30 2 -30 4 0 1 5 17 11 35 11 32
23 37 48 22z"/>
<path d="M1072 2620 c-19 -4 -38 -12 -43 -17 -4 -4 5 -51 23 -106 25 -80 34
-97 51 -97 15 0 18 5 13 23 -4 12 -9 35 -13 51 l-6 30 35 -21 c19 -11 46 -27
59 -36 14 -9 32 -12 43 -8 16 6 11 12 -33 40 -51 33 -60 45 -41 56 14 9 12 48
-2 67 -17 21 -46 27 -86 18z m55 -64 c-9 -23 -37 -32 -48 -15 -14 23 -10 47 9
52 23 5 46 -17 39 -37z"/>
<path d="M793 2479 c-35 -23 -63 -45 -63 -50 0 -17 21 -19 44 -4 24 16 25 16
75 -59 36 -52 56 -74 66 -70 8 4 15 9 15 14 0 4 -23 40 -51 80 -53 75 -53 73
-10 99 13 8 8 31 -7 31 -4 0 -35 -19 -69 -41z"/>
<path d="M2065 2429 c-31 -44 -58 -85 -60 -92 -3 -7 18 -27 46 -45 39 -25 54
-31 63 -22 11 11 5 18 -48 54 -19 12 -17 16 32 87 29 42 52 78 52 81 0 3 -7 8
-15 11 -9 4 -32 -20 -70 -74z"/>
<path d="M567 2284 c-22 -24 -37 -48 -35 -53 1 -5 37 -39 78 -75 l75 -66 44
44 c32 32 42 49 37 62 -6 15 -12 13 -44 -19 l-38 -37 -22 22 -22 22 22 23 c17
18 19 26 10 35 -9 9 -18 6 -37 -12 -24 -22 -27 -23 -42 -7 -15 15 -14 18 10
50 20 26 23 37 14 44 -8 7 -24 -4 -50 -33z"/>
<path d="M1353 2310 c-264 -37 -521 -225 -637 -465 -235 -483 14 -1046 529
-1201 80 -24 106 -27 235 -27 129 0 155 3 235 27 368 110 615 435 617 810 0
118 -13 200 -49 300 -93 260 -312 461 -583 535 -86 24 -255 34 -347 21z m321
-55 c160 -43 262 -102 377 -215 161 -160 241 -350 240 -575 0 -231 -76 -413
-240 -575 -117 -115 -218 -172 -382 -217 -88 -24 -290 -24 -378 0 -165 45
-266 102 -382 217 -164 163 -240 344 -241 575 -1 397 280 730 677 804 72 13
260 5 329 -14z"/>
<path d="M1295 2200 c-261 -69 -460 -260 -542 -520 -37 -118 -39 -296 -5 -414
39 -137 94 -229 197 -331 155 -155 321 -225 535 -225 128 0 218 22 340 82 92
45 116 63 195 142 102 104 159 198 196 331 33 113 33 287 0 400 -75 267 -294
476 -563 540 -89 21 -265 19 -353 -5z m-120 -415 c73 -10 121 -23 175 -48 118
-54 114 -46 118 -268 l3 -188 -30 28 c-42 39 -182 97 -266 111 -113 18 -272
52 -286 61 -10 6 -5 32 25 121 21 62 41 122 46 133 5 11 14 37 20 57 l11 37
42 -15 c23 -9 87 -22 142 -29z m825 -20 c5 -11 28 -78 51 -148 34 -100 41
-130 30 -136 -15 -10 -178 -45 -280 -60 -41 -6 -88 -18 -105 -25 -17 -8 -53
-24 -79 -35 -62 -26 -99 -55 -114 -89 -10 -22 -12 6 -13 160 0 239 2 243 115
299 60 29 103 42 166 51 46 6 111 19 144 28 60 18 60 18 69 -3 4 -12 12 -31
16 -42z m-931 -356 c74 -8 266 -57 258 -66 -2 -1 -38 4 -81 12 -43 8 -127 15
-186 15 -60 0 -132 5 -160 11 -52 11 -60 22 -40 59 10 18 12 18 66 -1 32 -11
96 -24 143 -30z m1045 35 c3 -9 6 -24 6 -34 0 -26 -74 -40 -213 -40 -62 -1
-143 -7 -182 -14 -38 -8 -72 -12 -74 -11 -9 9 175 56 256 65 51 5 114 19 140
30 59 24 60 24 67 4z m-1039 -103 c88 -5 179 -15 203 -22 42 -13 38 -14 -105
-17 -81 -2 -188 -4 -238 -5 l-90 -2 -3 34 -3 34 38 -7 c21 -4 110 -11 198 -15z
m1053 -13 l-3 -33 -90 2 c-49 1 -156 4 -237 5 -80 2 -146 4 -145 4 1 1 30 9
65 18 38 10 108 16 175 17 62 0 132 4 157 8 81 15 82 15 78 -21z m-488 8 c0
-2 -7 -7 -16 -10 -8 -3 -12 -2 -9 4 6 10 25 14 25 6z m-415 -77 c-85 -4 -137
-12 -179 -28 -33 -11 -95 -24 -138 -27 l-78 -7 0 30 0 30 123 7 c67 4 149 10
182 14 33 4 94 3 135 -3 l75 -10 -120 -6z m684 10 c30 -5 94 -9 143 -9 l88 0
0 -31 0 -32 -78 7 c-43 3 -105 16 -138 28 -41 15 -93 23 -174 26 l-115 6 75
11 c76 11 101 11 199 -6z"/>
<path d="M2275 2243 c-55 -20 -102 -38 -104 -40 -2 -1 2 -9 9 -17 10 -14 16
-14 46 -1 33 14 34 13 60 -20 24 -31 24 -35 11 -62 -12 -23 -13 -32 -3 -45 11
-14 20 -2 66 91 49 101 56 132 27 130 -7 0 -57 -17 -112 -36z m70 -42 c-8 -17
-17 -31 -19 -31 -1 0 -11 9 -21 20 -17 18 -16 19 16 33 19 8 35 13 37 12 2 -2
-4 -17 -13 -34z"/>
<path d="M412 2035 c-28 -20 -52 -66 -52 -100 0 -41 57 -95 107 -102 53 -7 89
14 109 64 19 45 11 83 -26 118 -36 34 -104 44 -138 20z m106 -45 c25 -16 32
-26 32 -52 0 -61 -49 -85 -110 -53 -51 26 -59 64 -22 108 20 23 59 22 100 -3z"/>
<path d="M2443 2010 c-70 -42 -80 -107 -26 -170 20 -25 28 -28 40 -19 12 10
10 16 -12 39 -37 39 -34 85 8 110 45 28 81 26 106 -6 12 -15 21 -37 21 -51 0
-20 3 -22 19 -13 17 9 18 14 8 46 -23 75 -98 105 -164 64z"/>
<path d="M2555 1712 c-49 -8 -91 -16 -92 -17 -2 -1 2 -29 8 -63 9 -49 15 -62
29 -62 16 0 17 5 9 38 -13 58 -12 62 25 62 30 0 35 -3 38 -27 2 -17 10 -29 21
-31 16 -3 17 1 12 31 -6 30 -4 36 15 42 28 9 38 -1 42 -45 2 -23 8 -35 18 -35
15 0 16 21 4 93 -6 37 -1 36 -129 14z"/>
<path d="M285 1696 c-15 -22 -33 -96 -24 -96 2 0 42 -7 89 -15 113 -20 132
-20 128 3 -2 11 -15 19 -38 22 -29 4 -35 9 -36 30 -2 44 -4 48 -20 64 -25 25
-81 21 -99 -8z m83 -50 c3 -26 1 -28 -20 -23 -13 4 -29 7 -35 7 -14 0 -18 32
-6 44 4 4 19 6 33 4 19 -2 26 -9 28 -32z"/>
<path d="M370 1349 c-25 -4 -60 -11 -77 -14 -23 -4 -33 -11 -33 -24 0 -16 6
-18 45 -13 41 4 45 3 45 -17 0 -33 36 -63 72 -59 46 5 72 44 63 97 -6 38 -9
41 -38 40 -18 -1 -52 -5 -77 -10z m78 -56 c-2 -22 -8 -28 -27 -28 -31 0 -52
31 -31 45 8 5 25 10 38 10 20 0 23 -4 20 -27z"/>
<path d="M2473 1300 c-5 -34 -7 -63 -3 -65 7 -4 179 -35 197 -35 13 0 19 17
29 83 5 38 3 47 -9 47 -18 0 -27 -21 -27 -62 0 -27 -3 -30 -22 -24 -13 3 -29
6 -37 6 -10 0 -12 9 -8 35 5 30 3 35 -14 35 -15 0 -19 -7 -19 -31 0 -27 -3
-30 -27 -27 -27 3 -28 5 -25 51 3 36 0 47 -11 47 -10 0 -17 -19 -24 -60z"/>
<path d="M2410 1078 c-51 -85 3 -178 103 -178 42 0 72 23 90 70 18 46 16 64
-5 68 -14 3 -18 -3 -18 -25 0 -65 -55 -92 -119 -58 -46 23 -54 66 -20 109 19
25 19 46 -2 46 -5 0 -18 -15 -29 -32z"/>
<path d="M424 1086 c-106 -48 -73 -206 44 -206 39 0 91 35 106 72 37 87 -61
174 -150 134z m115 -57 c20 -35 7 -75 -29 -94 -45 -23 -87 -19 -106 9 -23 36
-14 67 26 94 45 30 89 26 109 -9z"/>
<path d="M603 769 l-82 -72 41 -48 c23 -27 45 -49 49 -49 21 0 18 24 -5 49
-31 33 -32 42 -6 66 20 18 21 18 44 -4 33 -31 53 -18 26 16 -19 25 -19 27 -3
45 16 18 18 18 50 -14 23 -22 36 -29 44 -21 7 7 -3 24 -33 57 l-43 47 -82 -72z"/>
<path d="M2234 796 c-3 -8 16 -54 42 -103 55 -104 60 -111 75 -96 8 8 6 20 -6
42 -15 30 -15 33 7 61 25 32 35 35 72 21 18 -8 28 -6 37 5 6 8 10 16 8 18 -7
5 -207 66 -218 66 -6 0 -14 -6 -17 -14z m84 -39 c30 -12 30 -13 13 -36 l-18
-23 -21 36 c-23 39 -20 42 26 23z"/>
<path d="M836 661 c-4 -5 6 -18 20 -29 l27 -19 -53 -78 c-41 -60 -49 -79 -39
-86 8 -5 16 -9 19 -9 3 0 27 34 54 75 27 41 51 75 55 75 3 0 15 -7 25 -15 19
-14 36 -12 36 5 0 11 -114 90 -129 90 -5 0 -12 -4 -15 -9z"/>
<path d="M2011 607 c-8 -11 3 -34 50 -101 l60 -86 30 17 c16 10 42 27 57 39
23 20 25 23 10 29 -11 4 -29 -1 -47 -14 -16 -12 -31 -21 -34 -21 -2 0 -28 34
-56 75 -29 41 -54 75 -55 75 -2 0 -9 -6 -15 -13z"/>
<path d="M1051 431 c-17 -54 -31 -101 -31 -105 0 -3 8 -6 18 -6 13 0 22 12 31
40 6 22 16 40 20 40 5 0 19 -27 31 -59 14 -39 28 -61 41 -64 22 -6 21 4 -7 72
-8 19 -13 35 -12 36 2 1 13 8 25 14 28 14 39 52 23 81 -11 21 -65 50 -93 50
-9 0 -26 -36 -46 -99z m97 47 c16 -16 15 -23 -3 -41 -8 -9 -23 -13 -34 -10
-17 4 -18 9 -9 34 11 31 26 37 46 17z"/>
<path d="M1791 510 c-27 -12 -26 -18 20 -139 18 -47 36 -80 43 -78 12 4 13 42
2 69 -6 12 0 21 23 33 37 19 50 58 30 94 -12 20 -23 26 -54 28 -22 1 -51 -2
-64 -7z m77 -32 c18 -18 14 -46 -8 -58 -18 -10 -22 -7 -34 22 -8 18 -12 36
-10 40 8 12 39 9 52 -4z"/>
<path d="M1320 465 c0 -3 14 -32 30 -65 21 -43 30 -74 30 -110 0 -43 3 -50 20
-50 17 0 20 7 20 45 0 37 7 56 38 98 55 75 56 77 33 77 -13 0 -32 -17 -52 -47
l-32 -47 -26 52 c-16 34 -31 52 -43 52 -10 0 -18 -2 -18 -5z"/>
</g>
</svg>
