<?xml version="1.0" standalone="no"?>
<!DOCTYPE svg PUBLIC "-//W3C//DTD SVG 20010904//EN"
 "http://www.w3.org/TR/2001/REC-SVG-20010904/DTD/svg10.dtd">
<svg version="1.0" xmlns="http://www.w3.org/2000/svg"
 width="458.000000pt" height="120.000000pt" viewBox="0 0 458.000000 120.000000"
 preserveAspectRatio="xMidYMid meet">

<g transform="translate(0.000000,120.000000) scale(0.100000,-0.100000)"
fill="#f5f5f5" stroke="none">
<path d="M0 600 l0 -600 2290 0 2290 0 0 600 0 600 -2290 0 -2290 0 0 -600z
m1908 399 c156 -18 305 -68 396 -132 15 -11 39 -43 52 -71 23 -50 24 -58 23
-309 l-1 -257 -39 43 c-41 47 -130 99 -243 141 -101 38 -166 53 -307 70 -114
14 -236 43 -281 67 -15 8 -8 34 62 241 43 128 81 240 84 249 7 15 14 14 82 -7
41 -13 118 -29 172 -35z m1289 -177 c45 -130 83 -243 85 -251 5 -24 -142 -68
-287 -86 -145 -18 -209 -32 -311 -71 -153 -57 -267 -134 -277 -187 -2 -12 -5
103 -6 256 0 152 3 285 8 295 5 9 15 30 22 45 31 66 232 149 423 174 65 8 149
25 185 38 36 12 68 23 71 24 3 0 42 -106 87 -237z m-2955 -69 c15 -14 18 -32
18 -124 0 -100 -2 -109 -22 -123 -12 -9 -30 -16 -40 -16 -14 0 -18 -8 -18 -35
0 -31 -3 -35 -25 -35 l-25 0 0 175 0 175 47 0 c29 0 53 -6 65 -17z m180 0 c16
-14 18 -33 18 -156 0 -117 -3 -144 -17 -159 -21 -24 -68 -23 -93 2 -18 18 -20
33 -20 155 0 122 2 137 20 155 24 24 67 26 92 3z m188 -2 c0 -15 -8 -21 -32
-23 -30 -3 -33 -6 -36 -40 -3 -37 -3 -38 32 -38 29 0 36 -4 36 -19 0 -15 -8
-21 -32 -23 l-33 -3 0 -70 0 -70 33 -3 c24 -2 32 -8 32 -23 0 -16 -7 -19 -55
-19 l-55 0 0 175 0 175 55 0 c48 0 55 -3 55 -19z m220 0 c0 -14 -8 -21 -27
-23 l-28 -3 -3 -152 c-2 -144 -4 -153 -22 -153 -18 0 -20 9 -22 153 l-3 152
-32 3 c-25 2 -33 8 -33 23 0 17 8 19 85 19 77 0 85 -2 85 -19z m162 2 c15 -14
18 -32 18 -118 0 -70 -4 -107 -14 -120 -11 -16 -11 -24 0 -52 18 -42 18 -43
-10 -43 -19 0 -27 8 -36 35 -6 19 -16 35 -21 35 -5 0 -9 -16 -9 -35 0 -28 -4
-35 -20 -35 -19 0 -20 7 -20 175 l0 175 47 0 c29 0 53 -6 65 -17z m123 -45
l18 -63 20 63 c16 54 22 62 43 62 28 0 27 -6 -13 -124 -16 -50 -23 -92 -23
-148 0 -77 0 -78 -25 -78 -24 0 -25 2 -25 68 0 45 -10 102 -30 172 -16 58 -30
106 -30 107 0 2 11 3 24 3 20 0 26 -9 41 -62z m2551 48 c17 -13 19 -27 19
-119 0 -115 -13 -147 -62 -147 -20 0 -23 -5 -23 -35 0 -28 -4 -35 -20 -35 -19
0 -20 7 -20 175 l0 175 43 0 c24 0 52 -6 63 -14z m114 -141 l0 -155 35 0 c28
0 35 -4 35 -20 0 -18 -7 -20 -55 -20 l-55 0 0 175 c0 168 1 175 20 175 19 0
20 -7 20 -155z m234 128 c6 -28 56 -315 56 -320 0 -2 -11 -3 -24 -3 -21 0 -24
5 -30 60 -6 55 -9 60 -32 60 -27 0 -30 -4 -39 -72 -5 -41 -9 -48 -29 -48 l-22
0 27 173 c15 94 27 173 28 175 1 1 14 2 30 2 24 0 30 -5 35 -27z m218 10 c25
-22 24 -63 -1 -63 -10 0 -21 7 -25 15 -3 8 -12 15 -21 15 -13 0 -15 -17 -13
-125 3 -123 12 -152 33 -106 14 31 45 28 45 -6 0 -57 -69 -84 -110 -43 -18 18
-20 33 -20 149 0 115 2 131 21 155 24 30 63 34 91 9z m188 -3 c0 -16 -7 -20
-35 -20 -34 0 -35 -1 -35 -40 0 -39 1 -40 35 -40 31 0 35 -3 35 -25 0 -22 -4
-25 -35 -25 l-35 0 0 -70 0 -70 35 0 c28 0 35 -4 35 -20 0 -18 -7 -20 -55 -20
l-55 0 0 175 0 175 55 0 c48 0 55 -2 55 -20z m-2825 -274 c50 -15 137 -31 195
-37 116 -11 258 -47 335 -85 28 -13 41 -22 30 -18 -109 32 -224 46 -380 49
-159 2 -284 16 -314 34 -19 12 7 94 28 88 9 -3 57 -17 106 -31z m1724 -7 c10
-34 10 -43 0 -50 -31 -19 -156 -33 -309 -35 -165 -2 -294 -19 -381 -49 -72
-26 -53 -10 29 23 108 44 208 69 304 77 100 9 194 27 268 54 30 11 60 20 66
20 6 1 16 -18 23 -40z m-1744 -119 c28 -5 119 -9 203 -9 150 -1 237 -12 360
-48 30 -8 52 -17 50 -19 -3 -2 -42 3 -89 11 -107 19 -221 19 -329 0 -47 -8
-143 -15 -214 -15 -128 0 -128 0 -122 23 3 12 6 35 6 51 0 32 -5 32 135 6z
m1767 -27 c3 -27 3 -50 1 -52 -9 -12 -266 -2 -338 13 -100 20 -215 20 -324 1
-47 -8 -86 -13 -88 -11 -3 3 75 25 167 46 25 6 142 15 260 20 118 5 229 13
245 18 63 21 73 17 77 -35z m-1185 -89 c14 -6 -25 -9 -110 -10 -133 -2 -170
-7 -361 -58 -54 -14 -137 -29 -184 -33 l-85 -6 6 33 c4 18 7 40 7 49 0 15 12
17 113 14 74 -3 138 1 187 11 81 16 385 16 427 0z m885 0 c58 -10 131 -14 199
-12 l107 3 4 -49 3 -49 -81 7 c-44 3 -152 24 -240 47 -145 37 -171 41 -296 42
-75 1 -135 3 -133 5 23 23 314 27 437 6z"/>
<path d="M180 634 c0 -86 2 -95 18 -92 14 3 17 17 20 87 3 81 -3 100 -30 101
-5 0 -8 -43 -8 -96z"/>
<path d="M366 723 c-8 -8 -8 -248 0 -256 3 -3 12 -3 20 0 20 8 20 248 0 256
-8 3 -17 3 -20 0z"/>
<path d="M927 724 c-4 -4 -7 -47 -7 -96 0 -82 1 -88 20 -88 20 0 21 5 18 92
-3 84 -12 111 -31 92z"/>
<path d="M3600 635 c0 -88 1 -95 20 -95 19 0 20 7 20 89 0 86 -5 101 -36 101
-2 0 -4 -43 -4 -95z"/>
<path d="M3976 679 c-2 -8 -7 -31 -10 -51 -4 -33 -2 -38 14 -38 18 0 19 5 13
48 -7 52 -10 62 -17 41z"/>
</g>
</svg>
